<?xml version="1.0" standalone="no"?>
<!DOCTYPE svg PUBLIC "-//W3C//DTD SVG 20010904//EN"
 "http://www.w3.org/TR/2001/REC-SVG-20010904/DTD/svg10.dtd">
<svg version="1.0" xmlns="http://www.w3.org/2000/svg"
 width="1080.000000pt" height="1080.000000pt" viewBox="0 0 1080.000000 1080.000000"
 preserveAspectRatio="xMidYMid meet">
<metadata>
Created by potrace 1.14, written by Peter Selinger 2001-2017
</metadata>
<g transform="translate(0.000000,1080.000000) scale(0.100000,-0.100000)"
fill="#000000" stroke="none">
<path d="M6979 8006 c-2 -2 -51 -6 -109 -9 -58 -4 -132 -11 -165 -17 -33 -5
-80 -13 -105 -16 -25 -3 -48 -8 -51 -10 -3 -2 -21 -6 -39 -9 -19 -3 -95 -26
-169 -51 -486 -162 -888 -489 -1154 -939 -45 -77 -128 -260 -160 -355 -88
-258 -112 -399 -112 -665 0 -131 7 -275 14 -291 1 -1 20 0 44 1 23 2 98 6 167
10 69 4 143 8 165 10 22 2 108 6 190 10 83 4 177 8 210 10 85 5 667 5 745 0
36 -2 112 -6 170 -9 58 -4 121 -8 140 -11 19 -3 66 -7 105 -11 38 -3 76 -7 85
-9 9 -2 43 -6 75 -10 53 -6 195 -28 265 -41 14 -2 39 -7 56 -10 17 -2 118 -27
225 -54 107 -27 203 -52 214 -55 42 -10 248 -86 356 -131 109 -46 349 -165
379 -188 8 -6 31 -20 50 -30 19 -11 88 -55 153 -98 64 -43 121 -78 125 -78 25
0 169 391 188 510 3 19 7 37 9 40 2 3 6 26 10 50 3 25 8 52 10 60 23 85 23
479 1 587 -2 11 -8 43 -12 70 -6 41 -18 93 -63 270 -29 112 -144 360 -225 488
-103 161 -290 377 -421 485 -228 188 -485 326 -760 408 -153 46 -351 78 -503
81 -47 1 -89 4 -93 6 -3 3 -8 3 -10 1z"/>
<path d="M1922 6816 c-24 -66 -39 -175 -36 -253 10 -215 121 -399 328 -547
175 -124 478 -243 771 -301 31 -6 42 -8 110 -19 23 -3 52 -8 65 -11 13 -3 42
-7 65 -10 22 -3 51 -8 65 -10 14 -2 56 -7 95 -11 38 -3 78 -8 88 -10 11 -2 60
-6 111 -9 50 -4 114 -9 141 -12 93 -9 810 -12 795 -4 -8 5 -51 11 -95 15 -44
3 -93 8 -110 10 -16 3 -55 7 -85 11 -30 3 -80 10 -110 15 -52 9 -114 18 -172
25 -27 4 -122 21 -168 30 -14 3 -41 8 -60 11 -19 3 -84 17 -145 30 -60 14
-121 28 -135 30 -14 3 -55 14 -93 24 -37 10 -70 19 -72 19 -11 1 -127 35 -225
66 -522 166 -880 397 -1028 665 -36 65 -69 163 -77 228 -3 25 -7 47 -8 49 -2
1 -9 -13 -15 -31z"/>
<path d="M1696 6408 c-50 -233 -56 -468 -17 -643 53 -235 189 -436 396 -585
153 -111 402 -216 638 -270 50 -11 108 -25 127 -30 19 -5 58 -12 85 -16 28 -3
53 -8 56 -10 3 -1 30 -6 60 -9 30 -4 65 -8 79 -10 32 -5 130 -14 195 -20 201
-16 325 -20 650 -20 369 0 518 5 900 30 50 3 126 8 170 10 44 3 100 7 125 10
151 13 256 21 550 40 301 20 624 20 933 0 59 -3 116 -8 125 -10 9 -1 56 -6
104 -10 49 -3 96 -8 105 -9 10 -2 50 -7 88 -11 87 -8 117 -12 230 -31 50 -8
104 -17 120 -20 40 -6 174 -32 205 -39 14 -3 36 -8 50 -11 14 -3 43 -10 65
-16 22 -5 50 -12 62 -14 65 -12 383 -114 503 -162 159 -63 200 -81 342 -151
385 -189 698 -420 882 -651 20 -25 40 -49 44 -55 31 -39 116 -194 135 -245 15
-42 4 42 -18 138 -55 232 -128 401 -260 602 -325 491 -909 892 -1635 1121 -52
17 -106 33 -119 35 -14 3 -27 7 -31 9 -5 3 -244 59 -301 70 -54 11 -197 35
-234 40 -21 2 -73 9 -115 14 -41 6 -97 12 -125 15 -27 3 -72 8 -100 11 -27 3
-93 7 -145 11 -52 3 -126 7 -165 9 -78 5 -689 5 -775 1 -30 -2 -113 -7 -185
-10 -71 -4 -164 -9 -205 -11 -130 -7 -263 -15 -320 -20 -30 -3 -93 -7 -140
-10 -117 -7 -245 -15 -305 -20 -48 -3 -272 -14 -440 -21 -104 -4 -678 -4 -730
0 -22 2 -92 7 -155 10 -63 4 -126 9 -140 11 -14 1 -54 6 -90 10 -87 9 -109 12
-150 19 -19 3 -53 8 -75 11 -22 3 -47 8 -55 10 -8 3 -29 7 -45 9 -406 56 -685
220 -824 486 -67 128 -104 287 -102 438 1 28 0 52 -2 52 -1 0 -11 -37 -21 -82z"/>
<path d="M5968 4684 c-2 -1 -73 -5 -158 -9 -85 -4 -171 -8 -190 -10 -19 -2
-71 -6 -115 -10 -44 -3 -82 -8 -84 -11 -2 -2 45 -4 105 -5 171 -1 381 -7 479
-13 223 -15 437 -34 465 -41 8 -2 40 -7 70 -10 130 -14 352 -49 455 -71 39 -8
79 -16 90 -18 323 -62 830 -226 1094 -355 36 -17 67 -31 71 -31 10 0 241 -124
355 -191 94 -55 400 -270 425 -298 3 -3 39 -35 80 -70 237 -203 469 -482 578
-694 22 -43 25 -26 7 34 -80 263 -154 428 -263 594 -36 55 -71 105 -77 112 -5
6 -41 49 -80 95 -244 292 -629 542 -1090 710 -117 43 -366 117 -465 138 -130
29 -240 52 -269 56 -18 3 -42 7 -51 9 -10 2 -40 7 -67 11 -26 3 -56 8 -67 10
-10 2 -43 6 -74 10 -30 3 -63 8 -71 9 -53 10 -244 28 -441 41 -89 6 -707 14
-712 8z"/>
</g>
</svg>
